<?xml version="1.0" encoding="UTF-8" standalone="no"?>
<!-- Created with Inkscape (http://www.inkscape.org/) -->

<svg
   width="85.505417mm"
   height="85.505417mm"
   viewBox="0 0 85.505417 85.505417"
   version="1.1"
   id="svg1"
   xmlns="http://www.w3.org/2000/svg"
   xmlns:svg="http://www.w3.org/2000/svg">
  <defs
     id="defs1" />
  <g
     id="layer1"
     transform="translate(-36.988956,-46.771579)">
    <path
       d="m 293.01678,329.9904 h -153.216 v -153.216 h 153.216 z m -4.608,-4.608 v -144 h -144 v 144 z m -5.184,-45.504 -20.544,28.032 -19.008,-13.44 q -18.816,16.896 -43.776,20.928 -6.72,1.152 -13.44,1.152 -22.464,0 -42.048,-11.328 v -69.312 q 1.728,16.32 13.824,27.264 12.096,10.752 28.224,10.752 11.328,0 21.12,-5.568 l -12.864,-9.024 21.12,-28.416 12.288,9.024 q 1.536,-7.68 0.384,-15.168 -2.496,-15.552 -14.4,-25.536 -11.904,-10.176 -27.456,-10.176 -16.32,0 -28.416,10.944 -12.096,10.752 -13.824,26.88 v -45.888 h 110.592 q 16.512,22.464 16.512,50.496 0,18.048 -7.296,34.56 z"
       id="text1"
       style="font-size:192px;font-family:Comet;-inkscape-font-specification:'Comet, Normal';white-space:pre"
       transform="matrix(0.55807105,0,0,0.55807105,-41.029812,-51.881095)"
       aria-label="Q" />
  </g>
</svg>
